# xmcd
#
# Track frame offsets: 
#        150
#        11194
#        21292
#        30839
#        40658
#        50294
#        61007
#        70709
#        80877
#        91272
#        102781
#        113363
#        124885
#        136575
#        146175
#        156863
#        168262
#        180019
#        189306
#        199061
#        208228
#        219917
#        229821
#        240440
#        250710
#        260608
#        271148
#        280927
#        292946
#
# Disc length: 4072 seconds
#
# Revision: 1
# Processed by: cddbd v1.5.2PL0 Copyright (c) Steve Scherf et al.
# Submitted via: ExactAudioCopyFreeDBPlugin 1.0
#
DISCID=820fe61d
DTITLE=Don Bryant - The Complete Don Bryant on Hi Records
DYEAR=2000
DGENRE=Soul
TTITLE0=I Like it Like That
TTITLE1=My Baby
TTITLE2=Don't Turn Your Back on Me
TTITLE3=Star of Love
TTITLE4=That Driving Beat (as Willie Mitchell and The Four Kings)
TTITLE5=Everything's Gonna Be Alright (as Willie Mitchell and The Four K
TTITLE5=ings)
TTITLE6=Glory of Love
TTITLE7=I'll Do the Rest
TTITLE8=Coming on Strong
TTITLE9=The Lonely Soldier
TTITLE10=The Call of Distress
TTITLE11=Doing the Mustang
TTITLE12=Is That Asking Too Much?
TTITLE13=Can't Hide the Hurt
TTITLE14=There's Something on Your Mind, Pt.1
TTITLE15=There's Something on Your Mind, Pt.2
TTITLE16=Shop Around
TTITLE17=I'll Go Crazy
TTITLE18=That Ain't Right Woman
TTITLE19=You Cause Me to Wonder
TTITLE20=It's So Lonely Being Me
TTITLE21=What Are You Doing to My World?
TTITLE22=Love's Gonna Live Here Again (with Marion Brittnam)
TTITLE23=Been So Long (with Marion Brittnam)
TTITLE24=Please Don't Leave (with Marion Brittnam)
TTITLE25=Everytime I Think About You I Get the Blues (with Marion Brit
TTITLE25=tnam)
TTITLE26=I Will Be True (with Marion Brittnam)
TTITLE27=It's So Hard To Put You Down (with Marion Brittnam) (version 
TTITLE27=1)
TTITLE28=It's So Hard To Put You Down (with Marion Brittnam) (version 
TTITLE28=2)
EXTD=
EXTT0=
EXTT1=
EXTT2=
EXTT3=
EXTT4=
EXTT5=
EXTT6=
EXTT7=
EXTT8=
EXTT9=
EXTT10=
EXTT11=
EXTT12=
EXTT13=
EXTT14=
EXTT15=
EXTT16=
EXTT17=
EXTT18=
EXTT19=
EXTT20=
EXTT21=
EXTT22=
EXTT23=
EXTT24=
EXTT25=
EXTT26=
EXTT27=
EXTT28=
PLAYORDER=
